<?xml version="1.0"?>
<svg width="512" height="512" xmlns="http://www.w3.org/2000/svg" xmlns:svg="http://www.w3.org/2000/svg" version="1.1" xml:space="preserve">

 <g class="layer">
  <title>Layer 1</title>
  <g id="svg_1" transform="matrix(1, 0, 0, 1, 0, 0)">
   <g id="svg_2">
    <path d="m339.79,202.5l-17.15,0l0,0l-20.95,0l-45.69,0l-0.27,-0.01l-45.43,0l-20.95,0.01l-17.14,0c-1.28,0 -2.54,-0.06 -3.8,-0.13c0.77,47.65 39.75,86.19 87.59,86.19s86.82,-38.54 87.6,-86.19c-1.26,0.07 -2.53,0.13 -3.81,0.13z" fill="#eded74" id="svg_3"/>
   </g>
  </g>
  <g id="svg_4" transform="matrix(1, 0, 0, 1, 0, 0)">
   <g id="svg_5">
    <path d="m276.95,331.82l0,21.14l0,21.25l0,88.91c0,2.45 -0.45,4.8 -1.22,6.98c-2.88,8.13 -10.61,13.97 -19.73,13.97c-9.12,0 -16.85,-5.84 -19.73,-13.97c-0.78,-2.18 -1.22,-4.53 -1.22,-6.98l0,-88.91l0,-21.25l0,-21.14c-78.69,10.29 -139.65,77.77 -139.65,159.23c0,11.57 9.38,20.95 20.95,20.95l279.3,0c11.57,0 20.95,-9.38 20.95,-20.95c0,-81.45 -60.96,-148.94 -139.65,-159.23z" fill="#eded74" id="svg_6"/>
   </g>
  </g>
  <g id="svg_7">
   <g id="svg_8">
    <path d="m363.51,2.41c-3.07,-1.62 -6.42,-2.41 -9.75,-2.41c-4.97,0 -9.89,1.77 -13.8,5.18l-39.93,34.94l-28.13,-32.81c-3.97,-4.64 -9.79,-7.31 -15.9,-7.31c-6.11,0 -11.93,2.67 -15.91,7.31l-28.12,32.82l-39.93,-34.95c-3.91,-3.41 -8.83,-5.18 -13.8,-5.18c-3.33,0 -6.68,0.79 -9.75,2.41c-7.67,4.04 -12.06,12.38 -11.05,20.98l13.96,118.71c1.25,10.55 10.19,18.5 20.81,18.5l5.98,0l39.79,0l37.78,0c0.08,0 0.16,0 0.24,0l38.02,0l39.79,0l5.98,0c10.62,0 19.57,-7.95 20.81,-18.5l13.96,-118.71c1.01,-8.6 -3.38,-16.94 -11.05,-20.98z" fill="#eded12" id="svg_9"/>
   </g>
  </g>
 </g>
</svg>
