<?xml version="1.0"?>
<svg width="99.99999999999999" height="99.99999999999999" xmlns="http://www.w3.org/2000/svg" xmlns:svg="http://www.w3.org/2000/svg">

 <g class="layer">
  <title>Layer 1</title>
  <path d="m43.84,46.76a5.35,5.35 0 1 1 5.46,-5.34a5.41,5.41 0 0 1 -5.46,5.34z" fill="#7e47e5" fill-rule="evenodd" id="svg_1"/>
  <path d="m77.33,55.7l-7.27,-10.8l0,-0.9a24,24 0 0 0 -23.87,-24a22,22 0 0 0 -5.67,0.7a23.89,23.89 0 0 0 -18.21,23.3a21.92,21.92 0 0 0 3.58,12.7c4.18,6 7,10.8 5.27,17.3a4.58,4.58 0 0 0 0.9,4.2a4.43,4.43 0 0 0 3.68,1.8l19.6,0a4.72,4.72 0 0 0 4.66,-3.8a5,5 0 0 0 0.2,-1.2a2.37,2.37 0 0 1 2.39,-2l1.41,0a4.72,4.72 0 0 0 4.68,-3.4a41.31,41.31 0 0 0 1.48,-9.6l5.17,0a2.78,2.78 0 0 0 2.19,-1.6a2.86,2.86 0 0 0 -0.19,-2.7zm-19.84,-8.37l-1,1.57a2.22,2.22 0 0 1 -1.76,0.94a2.38,2.38 0 0 1 -0.72,-0.16l-2.65,-1a11.64,11.64 0 0 1 -3.85,2.2l-0.48,2.91a2,2 0 0 1 -2,1.65l-2,0a2,2 0 0 1 -2,-1.65l-0.48,-2.91a10,10 0 0 1 -3.69,-2l-2.81,1a2.38,2.38 0 0 1 -0.72,0.16a2.1,2.1 0 0 1 -1.76,-1l-1,-1.65a1.94,1.94 0 0 1 0.48,-2.51l2.33,-1.89a10.11,10.11 0 0 1 -0.24,-2.12a9.41,9.41 0 0 1 0.24,-2l-2.28,-1.99a1.92,1.92 0 0 1 -0.48,-2.51l1,-1.65a2,2 0 0 1 1.76,-1a2.38,2.38 0 0 1 0.72,0.16l2.81,1a11.52,11.52 0 0 1 3.69,-2.12l0.4,-2.76a1.91,1.91 0 0 1 2,-1.57l2,0a1.92,1.92 0 0 1 2,1.49l0.48,2.83a11.31,11.31 0 0 1 3.69,2l2.81,-1a2.38,2.38 0 0 1 0.72,-0.16a2.1,2.1 0 0 1 1.76,1l1,1.65a2,2 0 0 1 -0.46,2.56l-2.33,1.89a9.56,9.56 0 0 1 0.24,2.12a9.41,9.41 0 0 1 -0.24,2l2.33,1.93a2,2 0 0 1 0.49,2.59z" fill="#bf8fef" fill-rule="evenodd" id="svg_2"/>
 </g>
</svg>
